<?xml version="1.0" standalone="no"?>
<!DOCTYPE svg PUBLIC "-//W3C//DTD SVG 20010904//EN"
 "http://www.w3.org/TR/2001/REC-SVG-20010904/DTD/svg10.dtd">
<svg version="1.0" xmlns="http://www.w3.org/2000/svg"
 width="500.000000pt" height="500.000000pt" viewBox="0 0 500.000000 500.000000"
 preserveAspectRatio="xMidYMid meet">

<g transform="translate(0.000000,500.000000) scale(0.100000,-0.100000)"
fill="#000000" stroke="none">
<path d="M2205 2961 c-114 -30 -174 -118 -146 -212 16 -54 61 -84 171 -113
101 -27 116 -36 107 -60 -9 -24 -113 -21 -179 4 -61 23 -64 21 -94 -57 -20
-52 -19 -54 64 -79 63 -19 190 -21 249 -5 49 13 97 51 118 92 19 36 19 102 1
138 -22 41 -54 58 -164 87 -53 15 -100 31 -104 38 -11 16 29 46 62 46 24 0 90
-17 131 -34 12 -5 22 7 42 54 15 34 27 63 27 65 0 1 -19 10 -42 20 -47 19
-196 29 -243 16z m213 -26 c49 -15 51 -17 42 -40 -32 -81 -25 -74 -67 -59 -49
17 -144 18 -167 1 -11 -8 -17 -23 -14 -38 3 -25 4 -25 169 -73 78 -22 113 -61
113 -125 0 -64 -35 -112 -101 -138 -79 -30 -254 -21 -312 16 -14 9 -11 22 24
98 0 1 29 -7 64 -17 80 -25 142 -26 171 -2 37 30 19 59 -48 78 -31 8 -80 22
-108 30 -154 42 -153 217 1 272 45 16 175 14 233 -3z"/>
<path d="M3785 2961 c-74 -19 -114 -53 -140 -115 -38 -91 14 -171 131 -201
116 -29 139 -39 139 -60 0 -29 -93 -33 -171 -6 -32 11 -61 18 -65 15 -4 -2
-17 -29 -29 -60 -27 -65 -27 -65 60 -91 33 -10 89 -16 141 -16 102 1 158 21
207 77 28 32 32 43 32 96 0 93 -43 131 -185 160 -33 7 -68 16 -77 21 -38 20
-8 59 45 59 14 0 53 -9 87 -19 l61 -19 18 41 c36 83 36 83 -11 102 -47 19
-196 29 -243 16z"/>
<path d="M420 2700 l0 -260 205 0 205 0 0 65 0 65 -120 0 -120 0 0 195 0 195
-85 0 -85 0 0 -260z m152 48 l3 -193 118 -3 117 -3 0 -50 0 -49 -187 2 -188 3
-3 243 -2 242 70 0 70 0 2 -192z"/>
<path d="M880 2700 l0 -260 215 0 215 0 0 65 0 65 -130 0 -130 0 0 35 0 35
110 0 110 0 0 60 0 60 -110 0 -110 0 0 35 0 35 125 0 125 0 0 65 0 65 -210 0
-210 0 0 -260z m401 233 c4 -43 5 -70 1 -80 -3 -10 -38 -13 -128 -13 l-124 0
0 -45 0 -45 110 0 110 0 0 -49 0 -48 -100 -1 c-55 0 -104 -1 -110 -1 -5 -1
-10 -23 -10 -51 l0 -50 130 0 130 0 0 -50 0 -50 -197 2 -198 3 -3 243 -2 242
195 0 c107 0 195 -3 196 -7z"/>
<path d="M1340 2890 l0 -70 80 0 80 0 0 -190 0 -190 85 0 85 0 0 190 0 190 75
0 75 0 0 70 0 70 -240 0 -240 0 0 -70z m470 0 l0 -50 -80 0 -80 0 0 -195 0
-196 -67 3 -68 3 -3 193 -2 192 -75 0 -75 0 0 50 0 50 225 0 225 0 0 -50z"/>
<path d="M1870 2896 c0 -35 3 -84 6 -110 l7 -46 58 0 59 0 0 73 c0 39 3 89 6
110 l7 37 -72 0 -71 0 0 -64z m120 17 c0 -16 -3 -59 -7 -96 l-6 -68 -41 3 -41
3 -3 93 -3 92 51 0 c48 0 50 -1 50 -27z"/>
<path d="M2630 2890 l0 -70 75 0 75 0 0 -190 0 -190 85 0 85 0 0 190 0 189 78
3 77 3 3 68 3 67 -241 0 -240 0 0 -70z"/>
<path d="M3150 2700 l0 -260 220 0 220 0 0 65 0 65 -130 0 -130 0 0 35 0 35
110 0 110 0 0 60 0 60 -110 0 -110 0 0 35 0 35 125 0 125 0 0 65 0 65 -215 0
-215 0 0 -260z"/>
<path d="M4100 2890 l0 -70 80 0 80 0 0 -190 0 -190 85 0 85 0 0 190 0 190 75
0 75 0 0 70 0 70 -240 0 -240 0 0 -70z"/>
<path d="M1790 2190 c0 -5 5 -10 10 -10 6 0 10 5 10 10 0 6 -4 10 -10 10 -5 0
-10 -4 -10 -10z"/>
<path d="M3525 2192 c-41 -8 -37 -21 6 -19 35 2 44 -2 47 -16 2 -11 -6 -30
-19 -43 -12 -13 -20 -27 -16 -30 8 -8 44 33 53 59 10 32 -27 58 -71 49z"/>
<path d="M1400 2110 l0 -80 63 2 62 2 -52 3 c-53 4 -53 4 -53 38 0 33 2 34 43
38 l42 4 -42 1 c-40 2 -43 4 -43 31 0 28 2 30 48 34 46 3 46 3 -10 5 l-58 2 0
-80z"/>
<path d="M1856 2182 c-3 -5 14 -8 37 -8 50 1 61 -23 26 -60 -12 -13 -20 -27
-16 -30 8 -8 44 33 53 59 3 10 0 24 -6 32 -13 16 -85 21 -94 7z"/>
<path d="M2090 2110 l0 -80 53 0 c29 0 58 5 65 12 15 15 16 54 2 63 -7 4 -7
13 0 26 8 13 7 25 0 39 -9 16 -21 20 -65 20 l-55 0 0 -80z m94 64 c9 -3 16
-14 16 -24 0 -21 -19 -30 -61 -30 -26 0 -29 4 -29 30 0 26 3 30 29 30 16 0 36
-3 45 -6z m0 -74 c51 -19 17 -60 -50 -60 -21 0 -24 5 -24 35 0 30 3 35 24 35
14 0 36 -4 50 -10z"/>
<path d="M2760 2166 c0 -8 -6 -17 -12 -19 -10 -4 -10 -6 0 -6 7 -1 12 -17 12
-44 0 -24 5 -48 12 -55 14 -14 48 -16 48 -3 0 5 -8 8 -17 7 -14 -1 -19 8 -21
46 -3 42 -1 47 20 51 l23 4 -22 2 c-13 0 -23 8 -23 16 0 8 -4 15 -10 15 -5 0
-10 -6 -10 -14z"/>
<path d="M3138 2158 c-14 -14 -15 -18 -4 -18 11 0 16 -15 18 -52 3 -46 6 -53
26 -56 12 -2 22 1 22 6 0 5 -8 9 -17 8 -14 -1 -19 8 -21 46 -3 42 -1 47 20 51
22 4 22 4 1 6 -12 0 -23 7 -25 14 -2 9 -8 8 -20 -5z"/>
<path d="M1640 2140 c0 -6 11 -8 25 -4 25 6 55 -9 55 -27 0 -5 -15 -9 -34 -9
-41 0 -65 -24 -49 -48 7 -11 24 -17 52 -17 l41 -1 0 42 c0 64 -7 74 -51 74
-21 0 -39 -5 -39 -10z m75 -59 c7 -12 -22 -41 -40 -41 -18 0 -28 17 -21 35 6
16 51 20 61 6z"/>
<path d="M1790 2090 c0 -33 4 -60 10 -60 6 0 10 27 10 60 0 33 -4 60 -10 60
-6 0 -10 -27 -10 -60z"/>
<path d="M2275 2126 c-22 -33 -13 -73 20 -88 56 -25 109 26 83 80 -10 21 -21
28 -50 30 -30 3 -40 -1 -53 -22z m83 2 c26 -26 3 -88 -33 -88 -21 0 -45 29
-45 54 0 28 18 46 45 46 12 0 26 -5 33 -12z"/>
<path d="M2430 2088 c0 -32 4 -58 10 -58 6 0 10 20 10 44 0 34 5 48 21 60 21
14 21 15 -10 14 l-31 -1 0 -59z"/>
<path d="M2536 2141 c-3 -4 11 -8 31 -7 28 1 38 -3 41 -16 3 -13 -3 -18 -21
-18 -40 0 -57 -10 -57 -35 0 -26 18 -35 68 -33 31 1 32 2 32 48 0 25 -5 51
-12 58 -14 14 -74 16 -82 3z m74 -70 c0 -24 -36 -37 -56 -20 -19 16 0 39 32
39 17 0 24 -6 24 -19z"/>
<path d="M2867 2132 c-46 -50 12 -121 77 -96 9 3 16 10 16 15 0 5 -11 4 -24
-2 -27 -13 -66 3 -66 26 0 11 13 15 50 15 54 0 65 14 32 43 -24 22 -65 21 -85
-1z m71 -4 c21 -21 13 -28 -28 -28 -22 0 -40 4 -40 8 0 14 23 32 40 32 9 0 21
-5 28 -12z"/>
<path d="M3010 2135 c-17 -20 1 -41 41 -50 21 -5 29 -12 27 -23 -3 -13 -13
-16 -43 -15 -29 2 -36 0 -25 -7 22 -15 66 -12 80 5 18 21 8 37 -31 50 -44 15
-45 40 -1 40 17 0 32 3 32 7 0 14 -67 8 -80 -7z"/>
<path d="M3250 2140 c0 -6 11 -8 25 -4 25 6 55 -9 55 -27 0 -5 -15 -9 -34 -9
-41 0 -65 -24 -49 -48 7 -11 24 -17 52 -17 l41 -1 0 42 c0 64 -7 74 -51 74
-21 0 -39 -5 -39 -10z m78 -67 c5 -18 -45 -40 -60 -25 -6 6 -8 18 -4 27 7 19
57 17 64 -2z"/>
<path d="M3400 2088 c0 -32 4 -58 10 -58 6 0 10 20 10 44 0 34 5 48 21 60 21
14 21 15 -10 14 l-31 -1 0 -59z"/>
<path d="M1900 2040 c0 -5 5 -10 10 -10 6 0 10 5 10 10 0 6 -4 10 -10 10 -5 0
-10 -4 -10 -10z"/>
<path d="M3540 2040 c0 -5 5 -10 10 -10 6 0 10 5 10 10 0 6 -4 10 -10 10 -5 0
-10 -4 -10 -10z"/>
</g>
</svg>
